<svg width="125" height="125" viewBox="0 0 125 125" fill="none" xmlns="http://www.w3.org/2000/svg">
<path d="M62.6003 75.3281C59.44 75.3098 56.3975 74.1256 54.0565 72.0025C51.7146 69.8786 50.2395 66.9645 49.9145 63.8197C49.5893 60.6748 50.437 57.5208 52.2948 54.9627C54.1504 52.4077 56.8831 50.6269 59.9695 49.9613C60.8386 49.8089 61.7187 49.7292 62.6011 49.7227C63.4826 49.7269 64.3621 49.8066 65.2301 49.9611C68.317 50.6266 71.05 52.4075 72.9056 54.9627C74.7634 57.5208 75.611 60.6748 75.286 63.8197C74.9609 66.9645 73.4859 69.8786 71.144 72.0025C68.8029 74.1256 65.7606 75.3098 62.6003 75.3281Z" stroke="#355DFA" stroke-width="0.8"/>
<path d="M65.9135 64.0517C66.7705 62.1663 65.9368 59.9431 64.0513 59.0861C62.1659 58.2291 59.9427 59.0628 59.0857 60.9482C58.2287 62.8336 59.0624 65.0568 60.9478 65.9138C62.8332 66.7708 65.0564 65.9371 65.9135 64.0517Z" fill="#355DFA"/>
<path d="M46.3989 78.9555C55.4447 88.0013 70.1108 88.0013 79.1564 78.9555C85.4255 72.6866 87.3499 63.7181 84.9297 55.7919" stroke="#355DFA" stroke-width="0.8" stroke-linecap="round"/>
<path d="M45.7966 82.448V78.3533H49.8913" stroke="#355DFA" stroke-width="0.8" stroke-linecap="round" stroke-linejoin="round"/>
<path d="M78.6007 46.0446C69.555 36.9988 54.8889 36.9988 45.8432 46.0446C39.5742 52.3135 37.6498 61.2819 40.07 69.2082" stroke="#355DFA" stroke-width="0.8" stroke-linecap="round"/>
<path d="M79.2031 42.552V46.6467H75.1084" stroke="#355DFA" stroke-width="0.8" stroke-linecap="round" stroke-linejoin="round"/>
<path d="M59.5495 14.9905C57.5277 15.0417 55.6036 15.871 54.1781 17.3058C52.7527 18.7405 51.9359 20.6699 51.898 22.6921V27.693C49.812 28.3491 47.7872 29.1857 45.8467 30.1937L42.1459 26.5929C41.4272 25.8674 40.5695 25.2943 39.6244 24.9077C38.6792 24.521 37.6659 24.3288 36.6448 24.3424C34.5545 24.3272 32.5424 25.1357 31.0436 26.5929L26.9928 30.6937C26.1961 31.4315 25.5656 32.3302 25.1431 33.3305C24.7206 34.3307 24.5158 35.4094 24.5423 36.4949C24.5436 37.5183 24.7477 38.5313 25.1425 39.4755C25.5373 40.4197 26.1152 41.2763 26.8428 41.996L30.5436 45.6968C29.5075 47.6304 28.6536 49.6561 27.993 51.748H22.992C20.9097 51.748 18.9125 52.5752 17.44 54.0477C15.9677 55.5202 15.1404 57.5172 15.1404 59.5996V65.4508C15.1404 66.4796 15.3438 67.4982 15.7391 68.4479C16.1342 69.3977 16.7133 70.2601 17.4431 70.9851C18.1728 71.7102 19.0388 72.2838 19.9911 72.673C20.9434 73.0621 21.9633 73.259 22.992 73.2524H27.993C28.6449 75.356 29.4816 77.3977 30.4936 79.3536L26.8428 83.0044C25.3778 84.4612 24.5505 86.4396 24.5423 88.5055C24.5558 90.5755 25.3609 92.5618 26.7928 94.0566L30.9436 98.1076C32.4322 99.529 34.4114 100.322 36.4697 100.322C38.5281 100.322 40.5072 99.529 41.9959 98.1076L45.6466 94.4568C47.5773 95.4855 49.6041 96.323 51.6978 96.9572V101.958C51.6711 103.006 51.8545 104.049 52.2372 105.024C52.6197 106 53.1939 106.89 53.9256 107.64C54.6574 108.39 55.532 108.987 56.4978 109.394C57.4638 109.801 58.5014 110.01 59.5495 110.01" stroke="#355DFA" stroke-width="0.8"/>
<path d="M59.5344 14.9905H65.5508C67.6246 14.9637 69.6249 15.7586 71.1147 17.2016C72.6046 18.6445 73.4629 20.6184 73.5024 22.692V27.9931C75.6008 28.6356 77.6285 29.4902 79.5536 30.5438L83.1044 26.893C84.615 25.5153 86.586 24.7517 88.6305 24.7517C90.675 24.7517 92.6458 25.5153 94.1566 26.893L98.2574 30.9438C98.9847 31.6686 99.5619 32.5299 99.9557 33.4781C100.349 34.4264 100.552 35.4431 100.552 36.4699C100.552 37.4967 100.349 38.5134 99.9557 39.4617C99.5619 40.41 98.9847 41.2713 98.2574 41.9961L94.5568 45.6967C95.6616 47.623 96.5824 49.6491 97.3072 51.748H102.308C104.338 51.8256 106.259 52.687 107.667 54.1511C109.075 55.6153 109.861 57.5683 109.86 59.5997V65.4508C109.86 67.52 109.038 69.5044 107.575 70.9674C106.112 72.4305 104.127 73.2525 102.058 73.2525H97.0572C96.3836 75.3481 95.5477 77.3881 94.5568 79.3538L98.3074 83.1044C99.7611 84.5663 100.577 86.5441 100.577 88.6056C100.577 90.6672 99.7611 92.6449 98.3074 94.1067L94.1066 98.2575C92.618 99.6791 90.6388 100.472 88.5805 100.472C86.5221 100.472 84.543 99.6791 83.0544 98.2575L79.4536 94.6569C77.5057 95.6859 75.4622 96.5234 73.3524 97.1574V102.158C73.359 103.187 73.1621 104.207 72.7729 105.159C72.3838 106.112 71.8102 106.978 71.085 107.707C70.36 108.437 69.4977 109.016 68.5479 109.411C67.598 109.807 66.5794 110.01 65.5508 110.01H59.5504" stroke="#355DFA" stroke-width="0.8"/>
</svg>
