<svg width="125" height="125" viewBox="0 0 125 125" fill="none" xmlns="http://www.w3.org/2000/svg">
<path d="M118.125 111.875V13.125L6.87476 13.125V111.875H118.125Z" stroke="#355DFA" stroke-width="0.8"/>
<path d="M117.969 35.625H7.03101" stroke="#355DFA" stroke-width="0.8" stroke-linecap="round"/>
<path d="M19.9474 26.5789C20.8044 24.6935 19.9707 22.4703 18.0853 21.6133C16.1998 20.7563 13.9767 21.59 13.1196 23.4754C12.2626 25.3608 13.0963 27.584 14.9817 28.441C16.8672 29.2981 19.0904 28.4644 19.9474 26.5789Z" fill="#355DFA"/>
<path d="M45.7262 26.5789C46.5832 24.6935 45.7495 22.4703 43.8641 21.6133C41.9787 20.7563 39.7555 21.59 38.8984 23.4754C38.0414 25.3608 38.8751 27.584 40.7606 28.441C42.646 29.2981 44.8692 28.4644 45.7262 26.5789Z" fill="#355DFA"/>
<path d="M32.8368 26.5789C33.6938 24.6935 32.8601 22.4703 30.9747 21.6133C29.0892 20.7563 26.8661 21.59 26.009 23.4754C25.152 25.3608 25.9857 27.584 27.8711 28.441C29.7566 29.2981 31.9798 28.4644 32.8368 26.5789Z" fill="#355DFA"/>
<path d="M54.0623 45.9375H18.1248V81.875H54.0623V45.9375Z" stroke="#355DFA" stroke-width="0.8"/>
<path d="M17.4998 97.1875H105" stroke="#355DFA" stroke-width="0.8" stroke-linecap="round"/>
<path d="M67.4998 82.5H105" stroke="#355DFA" stroke-width="0.8" stroke-linecap="round"/>
</svg>
