<svg width="125" height="125" viewBox="0 0 125 125" fill="none" xmlns="http://www.w3.org/2000/svg">
<path d="M83.6411 67.5352C88.9499 67.5352 93.2535 63.2316 93.2535 57.9229C93.2535 52.6141 88.9499 48.3105 83.6411 48.3105C78.3324 48.3105 74.0288 52.6141 74.0288 57.9229C74.0288 63.2316 78.3324 67.5352 83.6411 67.5352Z" stroke="#355DFA" stroke-width="0.8"/>
<path d="M111.719 99.3295H57.1196C57.8021 84.7697 69.8595 73.1674 84.4193 73.1674C86.6942 73.1674 88.7417 73.3949 90.7892 73.8499C102.392 76.8074 111.036 87.0447 111.719 99.3295Z" stroke="#355DFA" stroke-width="0.8"/>
<path d="M90.2832 38.3134C75.5343 23.5645 51.6215 23.5645 36.8724 38.3134C26.651 48.535 23.5134 63.1578 27.4595 76.0814" stroke="#355DFA" stroke-width="0.8" stroke-linecap="round"/>
<path d="M60.2427 66.1126C59.4628 64.3969 60.2215 62.3738 61.9372 61.594C63.6529 60.8141 65.676 61.5727 66.4558 63.2885C67.2357 65.0042 66.4771 67.0272 64.7614 67.8071C63.0456 68.587 61.0226 67.8283 60.2427 66.1126Z" fill="#355DFA"/>
<path d="M63.3484 48.6071V64.7339" stroke="#355DFA" stroke-width="0.8" stroke-linecap="round"/>
<path d="M36.792 64.7339H63.3498" stroke="#355DFA" stroke-width="0.8" stroke-linecap="round"/>
</svg>
