<svg width="125" height="125" viewBox="0 0 125 125" fill="none" xmlns="http://www.w3.org/2000/svg">
<path d="M40.576 66.7439C42.302 66.7439 43.701 65.3621 43.701 63.6575C43.701 61.9528 42.302 60.571 40.576 60.571C38.8502 60.571 37.4512 61.9528 37.4512 63.6575C37.4512 65.3621 38.8502 66.7439 40.576 66.7439Z" fill="#355DFA"/>
<path d="M63.4734 66.7439C65.1993 66.7439 66.5984 65.3621 66.5984 63.6575C66.5984 61.9528 65.1993 60.571 63.4734 60.571C61.7476 60.571 60.3484 61.9528 60.3484 63.6575C60.3484 65.3621 61.7476 66.7439 63.4734 66.7439Z" fill="#355DFA"/>
<path d="M51.9438 66.7439C53.6698 66.7439 55.0688 65.3621 55.0688 63.6575C55.0688 61.9528 53.6698 60.571 51.9438 60.571C50.2181 60.571 48.8188 61.9528 48.8188 63.6575C48.8188 65.3621 50.2181 66.7439 51.9438 66.7439Z" fill="#355DFA"/>
<path d="M86.2424 63.6574C99.1813 63.6574 109.671 53.2978 109.671 40.5185C109.671 27.7393 99.1813 17.3798 86.2424 17.3798C73.3035 17.3798 62.8145 27.7393 62.8145 40.5185C62.8145 53.2978 73.3035 63.6574 86.2424 63.6574Z" stroke="#355DFA" stroke-width="0.8"/>
<path d="M78.4758 31.5486V49.4884" stroke="#355DFA" stroke-width="0.8" stroke-linecap="round"/>
<path d="M93.4172 31.5486V49.4884" stroke="#355DFA" stroke-width="0.8" stroke-linecap="round"/>
<path d="M85.9954 31.5486H100.839" stroke="#355DFA" stroke-width="0.8" stroke-linecap="round"/>
<path d="M88.822 63.5995V88.1366H78.6658L69.1345 99.402L59.6033 88.1366H15.2283V39.0625H62.7283C62.7283 39.5255 62.7283 40.1427 62.7283 40.6057C62.7283 53.4144 73.197 63.7539 86.1658 63.7539C87.1033 63.7539 87.8845 63.7539 88.822 63.5995Z" stroke="#355DFA" stroke-width="0.8"/>
</svg>
