<svg width="125" height="125" viewBox="0 0 125 125" fill="none" xmlns="http://www.w3.org/2000/svg">
<path d="M62.5 17.9359V107.064" stroke="#355DFA" stroke-width="0.8" stroke-linecap="round"/>
<path d="M56.8046 40.2177H18.1824" stroke="#355DFA" stroke-width="0.8" stroke-linecap="round"/>
<path d="M28.7603 33.0382C29.4743 31.4671 28.7796 29.6145 27.2084 28.9003C25.6373 28.186 23.7846 28.8809 23.0704 30.452C22.3562 32.0232 23.0511 33.8759 24.6221 34.5901C26.1934 35.3042 28.0461 34.6095 28.7603 33.0382Z" fill="#355DFA"/>
<path d="M49.1826 33.0382C49.8969 31.4671 49.202 29.6145 47.6309 28.9003C46.0597 28.186 44.207 28.8809 43.4928 30.452C42.7786 32.0232 43.4734 33.8759 45.0445 34.5901C46.6158 35.3042 48.4684 34.6095 49.1826 33.0382Z" fill="#355DFA"/>
<path d="M38.9713 33.0382C39.6855 31.4671 38.9909 29.6145 37.4196 28.9003C35.8484 28.186 33.9957 28.8809 33.2816 30.452C32.5674 32.0232 33.2621 33.8759 34.8334 34.5901C36.4046 35.3042 38.2573 34.6095 38.9713 33.0382Z" fill="#355DFA"/>
<path d="M56.5587 22.3923H18.0603V100.379H56.5587" stroke="#355DFA" stroke-width="0.8" stroke-linecap="round"/>
<path d="M68.4412 100.379H106.94V22.3921H68.4412" stroke="#355DFA" stroke-width="0.8" stroke-linecap="round"/>
<path d="M79.6362 52.1095L90.0269 62.5001L79.6362 72.8907" stroke="#355DFA" stroke-width="0.8" stroke-linecap="round"/>
<path d="M45.3699 72.8905L34.9792 62.4999L45.3699 52.1093" stroke="#355DFA" stroke-width="0.8" stroke-linecap="round"/>
<path d="M89.5874 62.5H35.2905" stroke="#355DFA" stroke-width="0.8" stroke-linecap="round"/>
</svg>
